<svg xmlns="http://www.w3.org/2000/svg" viewBox="0 0 420 620" font-family="sans-serif">
  <rect x="0" y="0" width="420" height="620" fill="#ffffff" stroke="#333" stroke-width="2"/>

  <!-- Header -->
  <rect x="0" y="0" width="420" height="44" fill="#f5f5f5" stroke="#333"/>
  <text x="16" y="28" font-size="16" font-weight="bold" fill="#222">WBS 상세</text>
  <text x="395" y="28" font-size="16" text-anchor="end" fill="#666">x</text>
  <line x1="0" y1="44" x2="420" y2="44" stroke="#999"/>

  <!-- 제목 -->
  <text x="16" y="72" font-size="13" fill="#333">제목</text>
  <rect x="80" y="58" width="324" height="26" fill="#fff" stroke="#888"/>

  <!-- 담당자 -->
  <text x="16" y="108" font-size="13" fill="#333">담당자</text>
  <rect x="80" y="94" width="324" height="26" fill="#fff" stroke="#888"/>
  <text x="390" y="112" font-size="11" fill="#888">▾</text>

  <!-- 시작일/종료일 -->
  <text x="16" y="144" font-size="13" fill="#333">시작일</text>
  <rect x="80" y="130" width="150" height="26" fill="#fff" stroke="#888"/>
  <text x="60" y="148" font-size="11" fill="#666" text-anchor="middle">2026-08-11</text>

  <text x="245" y="144" font-size="13" fill="#333">종료일</text>
  <rect x="310" y="130" width="94" height="26" fill="#fff" stroke="#888"/>
  <text x="357" y="148" font-size="11" fill="#666" text-anchor="middle">08-13</text>

  <!-- 상태 -->
  <text x="16" y="180" font-size="13" fill="#333">상태</text>
  <rect x="80" y="166" width="120" height="26" fill="#fff" stroke="#888"/>
  <text x="140" y="184" font-size="12" text-anchor="middle" fill="#333">TODO ▾</text>
  <text x="210" y="184" font-size="10" fill="#999">(일반회원: RESOLVED까지, DONE 비활성)</text>

  <!-- 내용 -->
  <text x="16" y="220" font-size="13" fill="#333">내용</text>
  <rect x="16" y="228" width="388" height="70" fill="#fff" stroke="#888"/>

  <line x1="0" y1="316" x2="420" y2="316" stroke="#ccc"/>

  <!-- 일자별 수행시간 -->
  <text x="16" y="340" font-size="13" font-weight="bold" fill="#333">일자별 수행시간</text>

  <text x="16" y="366" font-size="12" fill="#444">08-11</text>
  <rect x="70" y="354" width="50" height="22" fill="#fff" stroke="#888"/>
  <text x="95" y="370" font-size="11" text-anchor="middle" fill="#333">4</text>
  <text x="128" y="366" font-size="11" fill="#666">시간</text>

  <text x="16" y="394" font-size="12" fill="#444">08-12</text>
  <rect x="70" y="382" width="50" height="22" fill="#fff" stroke="#888"/>
  <text x="95" y="398" font-size="11" text-anchor="middle" fill="#333">4</text>
  <text x="128" y="394" font-size="11" fill="#666">시간</text>

  <text x="16" y="422" font-size="12" fill="#444">08-13</text>
  <rect x="70" y="410" width="50" height="22" fill="#fff" stroke="#888"/>
  <text x="95" y="426" font-size="11" text-anchor="middle" fill="#333">2</text>
  <text x="128" y="422" font-size="11" fill="#666">시간</text>

  <text x="16" y="452" font-size="12" font-weight="bold" fill="#333">합계: 10시간</text>
  <text x="130" y="452" font-size="12" fill="#c0392b">⚠ 8시간 초과일 있음</text>

  <line x1="0" y1="470" x2="420" y2="470" stroke="#ccc"/>

  <!-- Buttons -->
  <rect x="140" y="500" width="100" height="36" fill="#333"/>
  <text x="190" y="523" font-size="13" text-anchor="middle" fill="#fff">저장</text>

  <rect x="260" y="500" width="100" height="36" fill="#fff" stroke="#c0392b"/>
  <text x="310" y="523" font-size="13" text-anchor="middle" fill="#c0392b">삭제</text>
  <text x="200" y="560" font-size="10" text-anchor="middle" fill="#999">(삭제 버튼은 작성자 본인에게만 노출)</text>
</svg>
